<svg width="1440" height="3184" viewBox="0 0 1440 3184" fill="none" xmlns="http://www.w3.org/2000/svg">
<path d="M60.9324 2167.64C40.0396 2147.73 10.9388 2113.27 -1 2098.53V2010.08C17.1569 2020.22 55.7092 2052.09 64.6633 2098.53C75.8559 2156.58 101.972 2184.22 134.804 2220.15C167.635 2256.09 187.782 2471.69 199.721 2576.73C211.649 2681.67 173.671 2803.17 157.232 2855.77L157.189 2855.9C140.773 2908.42 116.149 3027.28 87.7947 3057.69C59.4401 3088.09 35.5625 3002.4 28.1008 2972C22.1314 2947.67 6.21301 2937.91 -1 2936.06V2819.97C6.46174 2835.63 25.1161 2876.36 40.0396 2913.95C58.6939 2960.94 113.165 2889.07 131.819 2839.32C150.473 2789.57 175.843 2662.42 173.605 2576.73C171.366 2491.04 161.666 2369.42 142.265 2297.55C122.865 2225.68 87.0485 2192.51 60.9324 2167.64Z" stroke="#DFA040" stroke-opacity="0.2"/>
<path d="M123.611 2339.01C106.3 2248.35 33.324 2194.36 -1 2178.69V2772.98C10.4413 2796.02 39.8903 2849.27 66.1556 2878.02C98.9873 2913.95 139.281 2745.34 159.427 2662.42C179.574 2579.49 145.25 2452.34 123.611 2339.01Z" stroke="#DFA040" stroke-opacity="0.2"/>
<path d="M63.9171 2759.16C40.0396 2761.37 10.6901 2710.33 -1 2684.53V2217.39C14.1722 2228.45 51.2322 2257.19 78.0944 2283.73C111.672 2316.9 105.703 2413.64 107.195 2526.97C108.688 2640.3 117.642 2609.9 115.403 2667.94C113.165 2725.99 93.7641 2756.4 63.9171 2759.16Z" stroke="#DFA040" stroke-opacity="0.2"/>
<path d="M37.0549 2640.3C30.4885 2611.56 8.94898 2604.37 -1 2604.37V2314.13C8.20281 2322.43 31.3839 2342.33 50.486 2355.6C74.3636 2372.18 75.8559 2457.87 75.8559 2521.44C75.8559 2585.02 80.3329 2571.2 83.3176 2629.25C86.3023 2687.29 45.2628 2676.24 37.0549 2640.3Z" stroke="#DFA040" stroke-opacity="0.2"/>
<path d="M23.8832 2567.96C18.6447 2543.35 5.11167 2537.2 -1 2537.2V2369.42C13.4061 2374.08 43.266 2401.85 47.4568 2475.68C52.6954 2567.96 30.4315 2598.72 23.8832 2567.96Z" stroke="#DFA040" stroke-opacity="0.2"/>
<path d="M-14 35.1573C-10.3333 292.614 -5.2 824.937 -14 894.58C116.5 1283.54 287 981.634 397.5 848.275C508 714.916 562.5 894.58 626 638.976C676.8 434.493 597.5 151.229 551.5 35.1573H-14Z" stroke="#DFA040" stroke-opacity="0.2"/>
<path d="M-14 1340.96V1179.82C207 1179.82 207.5 1583.6 163.5 1468.76C128.3 1376.89 30.5 1345.28 -14 1340.96Z" stroke="#DFA040" stroke-opacity="0.2"/>
<path d="M-1 707.508V559.331C129.398 485.301 172.932 559.215 208.916 620.311L209 620.454C245 681.577 330.5 646.385 365 559.331C399.5 472.278 416 398.189 494 438.938C572 479.686 548 290.762 541 257.422C535.4 230.75 438.333 80.845 390.5 9.22644H448.5C477.5 56.149 546.7 178.147 591.5 290.762C647.5 431.529 539 559.331 504.5 559.331C470 559.331 403 605.636 339.5 707.508C276 809.379 176.5 666.759 122 666.759C78.4 666.759 21.8333 693.925 -1 707.508Z" stroke="#DFA040" stroke-opacity="0.2"/>
<path d="M220.5 1736.33C134.12 1784.25 36.8416 1652.73 -1 1580.98V1493C42.8963 1536.05 136.945 1622.16 161.971 1622.16C193.254 1622.16 291.642 1622.16 382.966 1493C474.291 1363.85 494.978 1423.75 540.388 1493C585.797 1562.26 661.481 1506.11 721.523 1296.47C781.565 1086.83 787.619 970.777 818.397 970.777C849.175 970.777 904.676 1084.96 954.123 970.777C1003.57 856.599 1039.9 996.982 1113.06 1084.96C1186.22 1172.93 1261.4 1030.67 1316.39 1051.26C1360.39 1067.74 1416.46 1189.15 1439 1247.8V1350.75C1411.42 1291.48 1337.28 1165.07 1261.4 1133.62C1166.54 1094.31 1142.32 1247.8 1063.61 1172.93C984.9 1098.06 1018.2 1004.47 937.472 1172.93C856.743 1341.39 844.13 922.111 787.619 1247.8C731.109 1573.49 670.563 1580.98 607.998 1580.98C545.433 1580.98 494.978 1676.44 454.613 1622.16C414.249 1567.87 328.474 1676.44 220.5 1736.33Z" stroke="#DFA040" stroke-opacity="0.2"/>
<path d="M985.238 2751.82C1025.64 2854.07 1084.4 3082.13 1108.74 3183.39H1439.24V2218.39C1388.74 2218.39 1108.74 1933.15 1022.74 1753.49C936.738 1573.82 814.738 1746.08 798.238 1879.44C781.738 2012.79 934.738 2624.02 985.238 2751.82Z" stroke="#DFA040" stroke-opacity="0.2"/>
<path d="M1411.5 3183.07H1366C1338 2994.15 1205 2908.95 1154 2870.05C1103 2831.15 1006 2557.03 958 2477.38C910 2397.74 727 2262.53 650.5 2223.63C574 2184.74 528.5 1880.97 458.5 1851.34C388.5 1821.7 355.5 1895.79 303 1851.34C250.5 1806.89 214.5 1899.5 163.5 1925.43C122.7 1946.17 37.1667 1884.68 -0.5 1851.34V1766.14C46 1795.77 146.3 1854.3 175.5 1851.34C212 1847.63 257.5 1766.14 328.5 1790.22C399.5 1814.29 407.5 1756.88 458.5 1766.14C509.5 1775.4 623.5 1930.98 650.5 2040.26C677.5 2149.54 831.5 2312.54 882.5 2347.73C933.5 2382.92 1053 2527.39 1092 2651.49C1131 2775.59 1290.5 2914.5 1339 2973.77C1377.8 3021.19 1403.5 3133.06 1411.5 3183.07Z" stroke="#DFA040" stroke-opacity="0.2"/>
<path d="M997.38 -13H655.021C643.691 190.614 729.404 636.715 777.679 642.268C825.954 647.822 856.003 825.521 930.386 992.115C1004.77 1158.71 1142.21 901.414 1216.59 768.139C1290.97 634.864 1177.67 412.739 1112.65 301.677C1060.63 212.827 1014.13 54.8715 997.38 -13Z" stroke="#DFA040" stroke-opacity="0.2"/>
<path d="M998.232 682.332C982.453 632.281 973.085 587.791 974.071 498.812C999.218 354.221 1072.2 419.102 1122.49 498.812C1172.78 578.523 1176.73 682.332 1168.84 747.212C1160.95 812.093 1097.34 741.651 1072.2 815.8C1047.05 889.95 1014.01 732.382 998.232 682.332Z" stroke="#DFA040" stroke-opacity="0.2"/>
<path d="M774.723 438.657C734.529 379.423 701.493 115.341 690 -9.29559H730.391C735.317 65.9801 748.124 241.706 759.945 342.403C774.723 468.273 842.205 473.827 865.356 484.933C888.507 496.039 917.076 675.59 937.272 675.59C957.467 675.59 1043.67 605.251 1067.8 633.016C1091.94 660.782 1080.61 540.464 1067.8 438.657C1055 336.849 906.24 255.404 865.356 164.702C832.649 92.1415 851.728 18.47 865.356 -9.29559H893.925C894.582 3.66171 895.502 47.7165 893.925 120.277C891.955 210.979 1017.07 259.106 1067.8 342.403C1118.54 425.699 1119.52 605.251 1115.58 695.952C1111.64 786.653 1046.62 675.59 1017.07 675.59C987.514 675.59 909.688 775.547 887.522 675.59C865.356 575.634 824.965 512.698 774.723 438.657Z" stroke="#DFA040" stroke-opacity="0.2"/>
<path d="M1331.76 911.26C1381.36 943.858 1424.1 1111.3 1439.26 1190.94V311.145C1403.43 327.198 1322.36 368.934 1284.76 407.46C1237.76 455.617 1192.26 233.353 1150.76 311.145C1109.26 388.938 1269.76 870.511 1331.76 911.26Z" stroke="#DFA040" stroke-opacity="0.2"/>
<path d="M1327.77 1772.63C1372.97 1689.65 1420.93 1807.21 1439.27 1876.36V2128.26C1420.27 2079.48 1371.36 1986.01 1327.77 2002.31C1273.27 2022.68 1178.77 2135.66 1101.27 2176.41C1023.77 2217.16 957.765 1989.34 886.265 1876.36C814.765 1763.37 672.765 1918.96 584.265 1876.36C495.765 1833.75 470.765 1520.73 516.265 1659.65C561.765 1798.56 655.765 1772.63 748.265 1772.63H972.765C1004.76 1772.63 1097.27 1772.63 1129.77 1876.36C1162.27 1980.08 1271.27 1876.36 1327.77 1772.63Z" stroke="#DFA040" stroke-opacity="0.2"/>
<path d="M1161.94 2354.77C1220.74 2473.31 1371.44 2543.7 1439.44 2564.07V2430.71C1419.28 2386.88 1369.54 2310.32 1331.94 2354.77C1284.94 2410.34 1218.44 2304.76 1171.44 2264.01C1124.44 2223.27 1067.44 1984.33 1042.94 1767.62C1018.44 1550.92 929.944 1563.88 897.944 1528.69C865.944 1493.5 859.944 1417.56 912.944 1389.77C965.944 1361.99 1056.44 1528.69 1131.94 1606.48C1207.44 1684.27 1320.44 1606.48 1378.94 1606.48C1425.74 1606.48 1438.78 1778.12 1439.44 1863.94V1563.88C1356.44 1374.96 1331.94 1606.48 1171.44 1528.69C1010.94 1450.9 999.944 1263.82 912.944 1299.02C825.944 1334.21 820.444 1571.29 882.444 1606.48C944.444 1641.67 1088.44 2206.6 1161.94 2354.77Z" stroke="#DFA040" stroke-opacity="0.2"/>
<path d="M366.339 2301.42C350.796 2119.91 415.302 2045 482.916 2013.31C519.443 2013.31 532.655 2082.46 552.085 2206.35C571.514 2330.24 618.145 2238.04 664.775 2263.97C711.406 2289.9 622.808 2410.91 583.172 2448.36C543.536 2485.82 522.552 2675.97 482.916 2592.42C443.28 2508.87 381.883 2482.94 366.339 2301.42Z" stroke="#DFA040" stroke-opacity="0.2"/>
<path d="M396.5 2339.3C386.5 2222.61 428 2174.45 471.5 2154.08C495 2154.08 503.5 2198.53 516 2278.18C528.5 2357.82 558.5 2298.55 588.5 2315.22C618.5 2331.89 561.5 2409.68 536 2433.76C510.5 2457.84 497 2580.09 471.5 2526.37C446 2472.66 406.5 2455.99 396.5 2339.3Z" stroke="#DFA040" stroke-opacity="0.2"/>
<path d="M111 2286.3C84 2202.95 12 2154.79 -14 2193.69V2232.59C49 2217.77 133 2447.44 184.5 2660.44C236 2873.45 300.5 2958.65 368.5 2977.17C436.5 2995.69 487.5 2773.43 549.5 2875.3C599.1 2956.8 684.833 3114.24 721.5 3182.77H826C695.5 3136.46 572.5 2753.06 511 2699.34C449.5 2645.63 371.5 2862.34 339.5 2836.4C314.975 2816.53 138 2369.65 111 2286.3Z" stroke="#DFA040" stroke-opacity="0.2"/>
<path d="M43.5438 108.171C24.1065 115.708 5.74906 62.6355 -1 35.1573V200.026C-1 313.079 73.9145 159.987 117.108 155.276C160.302 150.566 142.08 296.592 189.323 317.79C236.567 338.987 277.736 343.698 320.93 503.856C364.124 664.015 507.204 508.567 552.423 459.106C597.641 409.646 682.005 583.936 727.223 654.594C772.442 725.252 895.95 786.489 999.21 737.028C1102.47 687.568 1241.5 755.871 1315.74 913.674C1375.13 1039.92 1441.27 1143.71 1466.92 1179.82H1610C1565.01 1155.48 1462.74 1076.66 1413.6 956.069C1352.19 805.331 1232.73 583.936 1072.1 654.594C911.473 725.252 650.284 508.567 619.913 459.106C589.542 409.646 532.176 390.803 471.434 459.106C410.692 527.409 314.181 343.698 277.736 261.263C241.291 178.829 230.493 200.026 222.394 200.026C214.295 200.026 181.225 159.987 142.08 86.9733C102.935 13.9598 67.8404 98.7496 43.5438 108.171Z" stroke="#DFA040" stroke-opacity="0.2"/>
<path d="M1474.54 862.716C1492.14 913.096 1523.54 912.108 1537.04 905.317V803.445C1523.87 804.68 1492.94 799.741 1474.54 770.106C1451.54 733.061 1449.04 636.747 1419.04 547.841C1389.04 458.935 1331.54 547.841 1280.54 473.753C1229.54 399.665 1232.04 273.715 1201.04 153.321C1170.04 32.9282 1110.54 162.583 1071.54 153.321C1032.54 144.06 1033.54 55.1547 1001.04 3.29297C968.54 -48.5688 936.54 38.4849 945.54 55.1547C954.54 71.8245 1022.04 119.982 1033.54 195.922C1045.04 271.863 1128.04 231.114 1166.04 273.715C1204.04 316.316 1211.04 329.281 1249.54 473.753C1288.04 618.225 1337.04 623.781 1392.54 683.052C1448.04 742.323 1452.54 799.741 1474.54 862.716Z" stroke="#DFA040" stroke-opacity="0.2"/>
</svg>
