<svg width="129" height="129" viewBox="0 0 129 129" fill="none" xmlns="http://www.w3.org/2000/svg">
<g filter="url(#filter0_i_1680_740)">
<path fill-rule="evenodd" clip-rule="evenodd" d="M3.80209e-07 51.3375C-0.000567231 46.7242 0.993776 42.165 2.91522 37.9708C4.83667 33.7767 7.64002 30.0463 11.1341 27.0339C14.6282 24.0216 18.7308 21.7982 23.1622 20.5155C27.5936 19.2327 32.2495 18.9206 36.8124 19.6006C38.7528 13.8854 42.4346 8.92149 47.3408 5.40599C52.247 1.89049 58.131 0 64.1667 0C70.2023 0 76.0864 1.89049 80.9925 5.40599C85.8987 8.92149 89.5805 13.8854 91.5209 19.6006C99.2213 18.4417 107.08 20.1229 113.633 24.3308C120.185 28.5386 124.983 34.9859 127.133 42.4704C129.282 49.9549 128.636 57.9657 125.315 65.0091C121.994 72.0526 116.225 77.6478 109.083 80.7515V102.671C109.083 114.773 109.083 120.817 105.323 124.577C101.563 128.337 95.5185 128.337 83.4167 128.337H44.9167C32.8148 128.337 26.7703 128.337 23.0102 124.577C19.25 120.817 19.25 114.773 19.25 102.671V80.7515C13.5276 78.2531 8.6583 74.1395 5.23904 68.9149C1.81977 63.6902 -0.000960603 57.5815 3.80209e-07 51.3375ZM44.9167 97.8583C43.6403 97.8583 42.4162 98.3653 41.5137 99.2679C40.6112 100.17 40.1042 101.394 40.1042 102.671C40.1042 103.947 40.6112 105.171 41.5137 106.074C42.4162 106.976 43.6403 107.483 44.9167 107.483H83.4167C84.693 107.483 85.9171 106.976 86.8196 106.074C87.7221 105.171 88.2292 103.947 88.2292 102.671C88.2292 101.394 87.7221 100.17 86.8196 99.2679C85.9171 98.3653 84.693 97.8583 83.4167 97.8583H44.9167Z" fill="#DFA040"/>
</g>
<defs>
<filter id="filter0_i_1680_740" x="0" y="0" width="128.379" height="132.337" filterUnits="userSpaceOnUse" color-interpolation-filters="sRGB">
<feFlood flood-opacity="0" result="BackgroundImageFix"/>
<feBlend mode="normal" in="SourceGraphic" in2="BackgroundImageFix" result="shape"/>
<feColorMatrix in="SourceAlpha" type="matrix" values="0 0 0 0 0 0 0 0 0 0 0 0 0 0 0 0 0 0 127 0" result="hardAlpha"/>
<feOffset dy="4"/>
<feGaussianBlur stdDeviation="2"/>
<feComposite in2="hardAlpha" operator="arithmetic" k2="-1" k3="1"/>
<feColorMatrix type="matrix" values="0 0 0 0 0 0 0 0 0 0 0 0 0 0 0 0 0 0 0.25 0"/>
<feBlend mode="normal" in2="shape" result="effect1_innerShadow_1680_740"/>
</filter>
</defs>
</svg>
